# xmcd
#
# Track frame offsets:
# 150
# 16117
# 32758
# 47753
# 65567
# 86605
# 99953
# 112851
# 134688
# 146348
# 166388
# 181796
#
# Disc length: 2621 seconds
#
#
# Revision: 0
# Processed by: cddbd v1.5.2PL0 Copyright (c) Steve Scherf et al.
# Submitted via: FreeRIP 2.60 
#
DISCID=940a3b0c
DTITLE=The Bear Cats - Maxed Out
DYEAR=2002
DGENRE=
TTITLE0=Maxed Out
TTITLE1=You Can't Judge A Book By Looking At The Cover
TTITLE2=My Baby's Gone
TTITLE3=Bending Like A Willow Tree
TTITLE4=Take Out Some Insurance
TTITLE5=Pick Up The Pieces
TTITLE6=Save Your Money Baby
TTITLE7=Crazy Mama
TTITLE8=Woman, You're Hurtin' Me
TTITLE9=Please Me, Tease Me
TTITLE10=I Want My Baby Back
TTITLE11=Theme From Peter Gunn
EXTD=
EXTT0=
EXTT1=
EXTT2=
EXTT3=
EXTT4=
EXTT5=
EXTT6=
EXTT7=
EXTT8=
EXTT9=
EXTT10=
EXTT11=
PLAYORDER=
